<svg xmlns="http://www.w3.org/2000/svg" viewBox="0 0 123.08 60">
	<path d="M41.29 54.66h1a8.15 8.15 0 00.88 0l.46.68c.25.35 1.2 1.71 2.36 3.26 0-2.1 0-3-.07-3.26s-.13-.33-.43-.36L45 55v-.29H47.07V55l-.49.07c-.14 0-.21.11-.24.29s-.09 1.4-.09 2.51v2a4.3 4.3 0 00-.7.11c-.72-1.07-2.06-3-3.08-4.43 0 1.85 0 3.36.07 3.69a.29.29 0 00.29.29 5 5 0 00.62.08v.29h-2.23v-.29h.5c.23 0 .29-.13.32-.34s.12-1.91.12-3.88a.49.49 0 00-.08-.18.39.39 0 00-.28-.12h-.52zm7 0h2.38v.3h-.51c-.11 0-.18.06-.19.21 0 .62-.05 2.21 0 3a1.28 1.28 0 00.38 1 1.48 1.48 0 001 .32c.75 0 1.33-.17 1.42-1.46a22.45 22.45 0 000-2.76c0-.22-.08-.29-.33-.31h-.5v-.29h2v.28h-.38c-.23 0-.28.1-.29.28 0 .89-.06 2.48-.13 3.07a1.83 1.83 0 01-.71 1.29A2.59 2.59 0 0151 60a2.23 2.23 0 01-1.64-.53 1.8 1.8 0 01-.41-1.31v-2.89c0-.3 0-.25-.19-.26h-.49zm7.6 1.89v-1.33c0-.16 0-.2-.25-.22H55v-.29h2.76c1.47 0 1.8.53 1.8 1.22a1.14 1.14 0 01-.5 1 2.49 2.49 0 01-1 .32c1 .09 1.39.46 1.48 1.09 0 .23.06.48.08.71s.14.58.5.58a1.41 1.41 0 00.28 0v.28a1.82 1.82 0 01-.61.09c-.84 0-1.19-.22-1.25-1 0-.2 0-.41-.06-.62-.05-.81-.5-.94-1.46-.94h-.24V59.32c0 .2.08.23.77.27v.29H55v-.29c.65 0 .73-.08.74-.23s0-.69 0-1.45zm1 .52h.26a2.18 2.18 0 001-.16 1 1 0 00.45-.94 1.15 1.15 0 00-.19-.66c-.11-.15-.36-.31-.91-.31a2 2 0 00-.5 0c-.06 0-.09.07-.1.15s0 .41 0 1zm5.15.78c0 1.44.77 1.81 1.6 1.81.64 0 1.08-.33 1.08-.89a.78.78 0 00-.58-.75c-.38-.17-1-.39-1.39-.58a1.34 1.34 0 01-1-1.3 1.47 1.47 0 01.5-1.14 2.06 2.06 0 011.36-.42 2 2 0 011.24.37l.2-.45.26.06a9.72 9.72 0 00-.12 1.94h-.3c0-1-.49-1.57-1.36-1.57a.86.86 0 00-1 .86c0 .34.17.65.79.87s1.23.5 1.51.65a1.15 1.15 0 01.72 1.08 1.47 1.47 0 01-.41 1.07 2.47 2.47 0 01-1.76.59 4.81 4.81 0 01-1.24-.17l-.6-.16a10.87 10.87 0 00.1-1.77zm4.68-3.18h2.88a11.39 11.39 0 001.37-.08 15.23 15.23 0 000 1.56h-.3a3.68 3.68 0 00-.19-.76c-.11-.29-.27-.4-1.14-.4h-.63c-.11 0-.15 0-.16.15s0 .68 0 1.17V57h.46c.7 0 .78-.08.9-.73h.3a13.41 13.41 0 000 1.9h-.41c-.09-.67-.17-.82-.86-.82h-.48V59.28c0 .16.11.2.81.2 1 0 1.18-.07 1.37-.35a3.31 3.31 0 00.42-1h.28c0 .25-.18 1.43-.22 1.69-.29 0-.8-.06-2.1-.06h-2.43v-.28l.58-.06c.17 0 .24-.09.25-.31s0-.88 0-1.34v-1.31-1.24c0-.24 0-.21-.23-.22h-.55zm6.57 1.88v-1.33c0-.16 0-.2-.26-.22h-.52v-.29h2.76c1.47 0 1.79.53 1.79 1.22a1.16 1.16 0 01-.49 1 2.6 2.6 0 01-1 .32c1 .09 1.39.46 1.47 1.09a5.74 5.74 0 01.09.71c0 .36.14.58.5.58a1.31 1.31 0 00.27 0v.28a1.76 1.76 0 01-.6.09c-.84 0-1.19-.22-1.26-1v-.62c-.05-.81-.5-.94-1.47-.94h-.23V59.32c0 .2.09.23.78.27v.29h-2.55v-.29c.65 0 .74-.08.75-.23s0-.69 0-1.45zm1 .52h.25a2.18 2.18 0 001-.16A1 1 0 0076 56a1.15 1.15 0 00-.18-.66 1.07 1.07 0 00-.91-.31 1.87 1.87 0 00-.5 0c-.07 0-.1.07-.11.15s0 .41 0 1zm8.14 2.79H79.46v-.29l.68-.08c.23 0 .29-.11.31-.28s0-1 0-1.45a.79.79 0 00-.11-.37c-.17-.31-.88-1.54-1.29-2.12-.18-.25-.34-.3-.87-.32v-.29h2.49v.29h-.42c-.11 0-.15.06-.11.16.17.33.76 1.39 1.11 2 .39-.67.85-1.6 1-2 0-.09 0-.18-.09-.19s-.32 0-.51-.06v-.29h1.92v.29c-.5 0-.7.09-.94.41a19.26 19.26 0 00-1.16 2 .76.76 0 00-.13.42v1.51c0 .29.07.2.24.22l.67.08zM1.14 44v-1.8c0-.26-.14-.2-.34-.26l-.73-.08v-.33h3.51a4.56 4.56 0 012.55.47 3.45 3.45 0 011.49 3.2 3.84 3.84 0 01-2.1 3.8 5.56 5.56 0 01-2.16.39H0V49h.6c.35 0 .46-.12.47-.35s.07-1 .07-2.11zm1.2 2.52v2.17c0 .29.14.28.82.28a2.63 2.63 0 002.36-1 4.72 4.72 0 00.69-2.8 3.85 3.85 0 00-.7-2.54 2.66 2.66 0 00-2.17-.8c-.91 0-1 .1-1 .26s-.05.63-.05 1.91zM12.76 49c1.12 0 1.93-.37 2.05-2.17a38.87 38.87 0 000-4.36c0-.47-.22-.51-.54-.53l-.61-.07v-.34h2.67l.06.34h-.47c-.35 0-.43.15-.44.46-.07 1.75-.07 3.84-.2 4.86A2.37 2.37 0 0114.3 49a3.2 3.2 0 01-2 .53 3 3 0 01-2.29-.8 2.84 2.84 0 01-.54-2v-4.38c0-.26-.07-.37-.26-.38l-.69-.08v-.34H11.67v.34l-.67.08c-.16 0-.25.1-.27.31a44 44 0 000 4.77 1.92 1.92 0 00.5 1.43 2.18 2.18 0 001.5.54zM23.2 44.17c-.08-1.27-.67-2.42-2.06-2.42a2.09 2.09 0 00-1.75.84 5.34 5.34 0 00-.15 5.33 2.2 2.2 0 001.92 1 2.34 2.34 0 002.36-1.85l.34.21a2.93 2.93 0 01-3.08 2.21A3.24 3.24 0 0118 48.3a4.49 4.49 0 01-.79-2.73 4.26 4.26 0 011.25-3.21 3.51 3.51 0 012.59-1 2.87 2.87 0 012.07.69l.23-.64.3.1a14.5 14.5 0 00-.11 2.6zM26.1 43.78V42.3c0-.39-.22-.41-1-.42v-.35h3.24v.35c-.74 0-.93.1-.95.42s0 .83 0 1.4v1.36H30.96v-1.39-1.44c0-.34-.24-.34-1-.35v-.35h3.24v.35c-.77 0-1 .1-1 .42V48.62c0 .38.21.37 1 .41v.34H29.98V49c.76 0 1-.12 1-.42v-3.09H27.41v3.16c0 .37.24.38 1 .42v.34H25.09V49c.78 0 1-.1 1-.4s.05-.72.05-1.67zM39.74 49.37h-3.76l-.07-.37.85-.1c.31 0 .43-.14.45-.42s.06-1.66.06-2.34a1.18 1.18 0 00-.16-.61c-.24-.51-1.27-2.31-1.77-3.09-.32-.51-.5-.57-1.19-.59v-.35h3.08l.05.35h-.56c-.17 0-.19.09-.11.25.27.61 1.15 2.17 1.68 3.13.85-1.51 1.3-2.44 1.55-3 .11-.26.07-.35-.1-.36a4.59 4.59 0 00-.69-.07v-.35h2.48v.35c-.72 0-.89.12-1.23.6-.44.65-1.26 2.1-1.73 3a1.2 1.2 0 00-.14.6v2.6c0 .16.08.24.31.26l.86.1zM47 43.91c1.06 0 1.62.66 1.62 1.79a4.37 4.37 0 01-1.57 3.3 2.52 2.52 0 01-1.57.49 1.52 1.52 0 01-1.65-1.71 4.39 4.39 0 011.7-3.44 2.56 2.56 0 011.47-.43zm-.08.33a1.69 1.69 0 00-1.34.82 5.46 5.46 0 00-.93 2.86c0 .93.47 1.24.95 1.24a1.49 1.49 0 001.15-.57 5.63 5.63 0 001.08-3.17c0-.73-.28-1.18-.89-1.18zM51.1 44.12a5.47 5.47 0 011.19-2.54 1.89 1.89 0 011.41-.65c.6 0 1 .34 1 .81a.48.48 0 01-.46.54c-.2 0-.34-.11-.3-.28s0-.21 0-.28c0-.24-.09-.43-.47-.43s-.78.39-1.06 1.08a14.61 14.61 0 00-.55 1.75h1.24l-.14.34-1.21.09c-.47 1.88-1.07 4.22-1.48 5.39A3.47 3.47 0 0148.81 52a1.87 1.87 0 01-1 .28.88.88 0 01-.91-.74.51.51 0 01.35-.48.27.27 0 01.34.16c.18.34.4.56.73.56.56 0 .85-.52 1.21-1.66s1-3.42 1.49-5.61l-.92-.1.13-.33zM62.69 44.17c-.08-1.27-.67-2.42-2.06-2.42a2.09 2.09 0 00-1.75.84 5.34 5.34 0 00-.15 5.33 2.2 2.2 0 001.92 1A2.34 2.34 0 0063 47.11l.34.21a2.94 2.94 0 01-3.08 2.21 3.24 3.24 0 01-2.78-1.23 4.43 4.43 0 01-.79-2.73 4.29 4.29 0 011.24-3.21 3.55 3.55 0 012.6-1 2.87 2.87 0 012.07.69l.23-.64.3.1a14.5 14.5 0 00-.11 2.6zM68.37 41.37c2.27 0 3.51 1.79 3.51 4 0 2.82-1.47 4.21-3.63 4.21s-3.6-1.42-3.6-4c0-2.27 1.27-4.15 3.7-4.15zm-.12.36a1.86 1.86 0 00-1.63 1 5.44 5.44 0 00-.57 2.69 5.6 5.6 0 00.64 2.83 1.88 1.88 0 001.68.95 1.75 1.75 0 001.63-.96 6.09 6.09 0 00.53-2.76 6.08 6.08 0 00-.56-2.78 1.81 1.81 0 00-1.65-1zM73.93 44.13v-1.9c0-.27-.07-.25-.31-.28l-.76-.07.06-.35h3.37a2.76 2.76 0 012.06.53 1.68 1.68 0 01.48 1.27c0 1.32-1 1.82-2.12 2v.05c1.13.14 1.91.57 2.09 1.66a9 9 0 01.16 1.19c0 .56.24.83.67.83A1.36 1.36 0 0080 49v.36a3.64 3.64 0 01-.84.1c-1 0-1.43-.41-1.5-1.47 0-.32-.06-.64-.09-1-.12-1.19-.79-1.44-2-1.44h-.37V48.58c0 .38.15.35 1 .42v.34H72.89V49c.8-.05 1-.12 1-.37s.05-.8.05-2zm1.2 1.08h.37c1.29 0 2-.48 2-1.76a2 2 0 00-.24-1 1.39 1.39 0 00-1.26-.54 3 3 0 00-.62.07.19.19 0 00-.17.2c0 .16-.05.58-.05 1.65zM81.06 41.53h1.25a9.25 9.25 0 001 0 12 12 0 00.68 1c.35.56 1.71 2.53 3.53 5.11 0-3.59 0-4.86-.1-5.19s-.17-.52-.63-.56h-.64l.06-.35H89.03v.35c-.27 0-.46 0-.64.08s-.28.16-.33.45c-.06.45-.13 2-.13 3.83v3.13a5.69 5.69 0 00-.72.12c-1.09-1.71-3.11-4.66-4.55-6.78 0 2.8 0 5.31.1 5.76s.18.42.4.46L84 49v.34H81.03V49a4.08 4.08 0 00.66-.08c.29-.05.36-.22.4-.55s.19-3.16.19-6a.82.82 0 00-.14-.28c-.07-.1-.22-.16-.49-.18h-.57zM99 41.53H101.65v.35c-.75.07-.88.13-1.11.75-.59 1.66-1.47 4.51-2.18 6.85a4.86 4.86 0 00-.77 0c-.37-1.38-1.15-3.93-1.87-6.43-.94 3.32-1.36 4.77-1.79 6.42a4.21 4.21 0 00-.79 0c-.52-2-1.59-5.6-2-6.86-.22-.64-.38-.74-1.1-.75v-.35h3.04l.07.35-.64.08c-.17 0-.22.1-.17.27.4 1.62 1.23 4.41 1.6 5.72.79-2.76 1.63-5.85 1.73-6.38a8.36 8.36 0 00.88 0c.14.65.92 3.34 1.85 6.47.82-2.54 1.48-4.89 1.63-5.61.06-.35 0-.43-.25-.46l-.78-.07zM108.7 49.37H105.52V49c.75-.05.87-.12.8-.36-.11-.43-.44-1.52-.69-2.3h-2.46c-.34 1.07-.53 1.6-.6 1.94-.14.53 0 .67 1 .72v.34h-2.75V49c.67-.05.91-.14 1.19-.82.4-1 1.77-4.84 2.13-5.89a4.71 4.71 0 00.21-.73 4.28 4.28 0 001-.18c.61 2.05 1.89 6.11 2.36 7.22a.54.54 0 00.53.36h.48zm-5.38-3.43h2.13c-.31-1.09-.72-2.39-1-3.46-.28.91-.66 1.99-1.13 3.46zM115.87 47c-.1.55-.21 1.59-.28 2.36h-5.86V49l.7-.08c.27 0 .36-.1.37-.29 0-.4.08-1.2.08-2.22v-2.59-1.61c0-.26-.1-.26-.34-.28h-.65v-.36h3.25v.36h-.69c-.27 0-.35.1-.36.32V48.7c0 .14.09.21.89.21 1.3 0 1.69-.08 2-.49a4.2 4.2 0 00.55-1.46zM123.08 47c-.1.55-.21 1.59-.28 2.36h-5.86V49l.7-.08c.27 0 .36-.1.37-.29 0-.4.08-1.2.08-2.22v-2.59-1.61c0-.26-.1-.26-.34-.28h-.65v-.36h3.25l.05.36h-.69c-.27 0-.35.1-.36.32V48.7c0 .14.08.21.88.21 1.31 0 1.7-.08 2-.49a4.2 4.2 0 00.55-1.46z" class="cls-1"/>
	<path fill="#12100b" d="M63.34 9.4a.09.09 0 00.08-.08.09.09 0 00-.08-.09.08.08 0 00-.08.09.08.08 0 00.08.08m.9 1.15h.25a.75.75 0 00.75-.5.71.71 0 000-.14.82.82 0 00-.66-.75h-.25a.73.73 0 00-.74.5.77.77 0 000 .15.82.82 0 00.66.74m-.58-.87h.07a.59.59 0 01.61-.4h.22a.69.69 0 01.56.61.52.52 0 010 .11.61.61 0 01-.61.4h-.21a.68.68 0 01-.56-.61.37.37 0 010-.11zm5.91 7.66c0-.29-.09-3.62-.09-3.62H55.05s-.11 3.33-.11 3.58v.05a17.44 17.44 0 007.33 14.5 17.4 17.4 0 007.3-14.49zM65 16.21a1 1 0 11-1 1 1 1 0 011-1m-.2 4a1 1 0 11-1-1 1 1 0 011 1m-1.47 3.28a1 1 0 11-1-1 1 1 0 011 1m-1-7.27a1 1 0 11-1 1 1 1 0 011-1m-.51 4a1 1 0 11-1-1 1 1 0 011 1m-2.23-4a1 1 0 11-1 1 1 1 0 011-1m-3.75 1a1 1 0 111 1 1 1 0 01-1-1m1 3a1 1 0 111 1 1 1 0 01-1-1M58 23.5a1 1 0 111 1 1 1 0 01-1-1m2.45 4.21a1 1 0 110-2.05 1 1 0 010 2.05m1.89 2.81a1 1 0 111-1 1 1 0 01-1 1m1.9-2.81a1 1 0 111-1 1 1 0 01-1 1m1.34-3.18a1 1 0 111-1 1 1 0 01-1 1m1.19-3.29a1 1 0 111-1 1 1 0 01-1 1m1-3a1 1 0 111-1 1 1 0 01-1 1m-2.05-8.19a.07.07 0 00.08-.08.08.08 0 00-.08-.08.09.09 0 00-.08.08.08.08 0 00.08.08m-.16.58a.09.09 0 00.08-.08.08.08 0 00-.08-.08.07.07 0 00-.08.08.08.08 0 00.08.08m-2.26-.39a.09.09 0 00.09-.09.09.09 0 00-.09-.08.09.09 0 00-.08.08.09.09 0 00.08.09m1.1.05h.17A.47.47 0 0065 10a.29.29 0 000-.09.56.56 0 00-.45-.48.55.55 0 00-.18 0 .47.47 0 00-.48.31.28.28 0 000 .09.55.55 0 00.45.49M64 9.77a.33.33 0 01.35-.22.32.32 0 01.14 0 .41.41 0 01.35.35v.1a.37.37 0 01-.36.22h-.14a.44.44 0 01-.34-.4.09.09 0 010-.05h-.07zm-1-.28l-.76-.86-.74.86.75.86zm-1.3 0l.55-.62.55.62-.55.65zm-2.84.58A.08.08 0 0059 10a.09.09 0 00-.08-.08.09.09 0 00-.09.08.08.08 0 00.09.08m.16.58a.08.08 0 00.08-.08.08.08 0 00-.16 0 .08.08 0 00.08.08m1-.07h.25a.81.81 0 00.67-.78.76.76 0 000-.15.74.74 0 00-.75-.5H60a.83.83 0 00-.66.75.78.78 0 000 .14.73.73 0 00.74.5M60 9.33h.21a.59.59 0 01.61.4.36.36 0 010 .11.7.7 0 01-.56.61h-.22a.62.62 0 01-.61-.4.45.45 0 010-.11.67.67 0 01.57-.61m2.27-.26l-.36.41.36.45.36-.44zm-.17.42l.16-.2.18.2-.17.2zm-4.79 2.2c-.21.19-.23.34-.17.48.1.29.46.23.72.1a18.24 18.24 0 008.81 0c.33.15.58.15.7-.11s0-.27-.14-.47l1-3.78h-.48a.41.41 0 00.31-.4.42.42 0 00-.37-.51.39.39 0 00.09-.26.42.42 0 00-.41-.42.41.41 0 00.08-.24.42.42 0 00-.45-.38.41.41 0 000-.19.42.42 0 00-.42-.42h-.08a.47.47 0 000-.16.42.42 0 00-.43-.42H66a.43.43 0 000-.11.43.43 0 00-.37-.4.47.47 0 00-.17 0v-.07a.42.42 0 00-.42-.42.48.48 0 00-.24.07.42.42 0 00-.42-.42.47.47 0 00-.3.12.43.43 0 00-.4-.28.4.4 0 00-.23.08 1.18 1.18 0 00-.93-1.39h-.09a.39.39 0 00.17-.11l.93.3V.7l-.88.3.35-1h-1.51l.4 1L61 .7v1.14l.94-.3a.35.35 0 00.15.11h-.08A1.19 1.19 0 0061.09 3a.4.4 0 00-.22 0 .42.42 0 00-.41.33.41.41 0 00-.3-.12.42.42 0 00-.42.42.39.39 0 00-.23-.07.41.41 0 00-.42.42V4a.33.33 0 00-.17 0 .42.42 0 00-.42.42.25.25 0 000 .12h-.12a.42.42 0 00-.42.42.41.41 0 000 .16h-.08a.42.42 0 00-.42.42.46.46 0 00.05.2.42.42 0 00-.43.42.41.41 0 00.08.24.41.41 0 00-.41.42.43.43 0 00.09.26.4.4 0 00-.38.41.41.41 0 00.32.41h-.52zM63.4.88v.79l-.74-.23a.41.41 0 000-.16.26.26 0 000-.15zM57 9.91l1.45.61-.49.79-.34.2.56-.88-1.18-.48zm.54.05a2.31 2.31 0 002.31-1.13 2.34 2.34 0 002.46-.37 2.28 2.28 0 002.45.36A2.16 2.16 0 0067 10l-1.08.48.42.75a11.44 11.44 0 00-8.11 0l.46-.75s-.83-.37-1.15-.49m-.41.38l.8.35-.46.77zm.87 1.78a7.56 7.56 0 011.47-.58c0 .06 0 .11.07.11s.06 0 .06-.14h.22c0 .15 0 .19.07.19s.06 0 .06-.22l.26-.06c0 .23 0 .28.07.28s.07 0 .07-.29h.27c0 .26 0 .33.07.33s.07 0 .07-.36H61c0 .33 0 .39.08.39s.06-.06.06-.4h.28c0 .34 0 .42.08.42s.07-.08.07-.43h.32c0 .38 0 .45.09.45s.07-.07.08-.45h.4c0 .38 0 .45.08.45s.08-.06.08-.45h.32c0 .38 0 .43.08.43s.07-.06.07-.42h.28c0 .35 0 .4.06.4s.08 0 .08-.38h.25c0 .29 0 .35.07.35s.07 0 .06-.33h.28c0 .22 0 .3.06.3s.08-.06.08-.27h.25c0 .19 0 .23.07.23s.07 0 .06-.19h.22c0 .1 0 .14.07.14s.07 0 .07-.1a8.42 8.42 0 011.46.57 18.54 18.54 0 01-8.51 0m9.2 0c-.12.23-.57-.07-.91-.23a10.59 10.59 0 00-8.07 0c-.24.11-.78.47-.9.23s.23-.49.79-.73a11.18 11.18 0 018.3 0c.48.21.92.46.79.74m-.1-.69l-.43-.76.74-.32zm.38-1.29l-1.06.48.5.87-.33-.19-.44-.78 1.4-.63zM68 7.44a.32.32 0 11-.31-.31.31.31 0 01.31.31m-.59 1c-.16 0-.16-.11-.36-.58-.32-.72-1.52-3.76-4.35-3.86a2 2 0 00.33-.2c2.22.19 3.62 2.3 4.27 4.09.12.33.21.53.08.58m.07.69l-1-.11.23-.58zm-1.3-.89c-.23-.08-.36-.32-.61-.32 0-.16.15-.24.13-.41a.81.81 0 01.48.73m-1.82-2.56c-.49-.32-1.39-.86-2.06-.34-.56-.53-1.62 0-2.05.34a2.34 2.34 0 00-1.12-.17 4.14 4.14 0 016.33 0 1.83 1.83 0 00-1.1.17m.29 1.45c-.09.2 0 .24-.08.43-.2-.15-.42 0-.61 0a.79.79 0 01.69-.42m-2.09.07a.45.45 0 00-.26-.09.39.39 0 00-.26.09l-.29-.82h1.09zm0 .33a.32.32 0 11-.63 0 .32.32 0 11.63 0m-.68.22l-.67.21v-.9l.69.31a.32.32 0 000 .14.55.55 0 00.06.22m.76-.36l.7-.31V8l-.73-.24a.37.37 0 00.06-.21.32.32 0 000-.14m-2.06.07c-.19 0-.41-.13-.61 0-.05-.2 0-.24-.08-.44a.79.79 0 01.69.42m-3.11.41c-.14.33-.21.63-.34.57s-.12-.12.06-.58c.95-2.51 2.55-4 4.29-4.13a1.34 1.34 0 00.34.2c-2.77.17-4 3.14-4.35 3.94M59 7.82c-.25 0-.37.25-.61.32a.82.82 0 01.48-.73c0 .17.11.26.13.41M58.07 9l-1 .13.78-.7zm-.93-1.18h-.07l.09-.05v.05m.09-.64a.37.37 0 00.2-.07l-.12.26a.46.46 0 00-.08-.19m.31-.66a.36.36 0 00.22-.07l-.15.28a.52.52 0 00-.07-.21m.36-.61a.45.45 0 00.2 0l-.19.27a.41.41 0 00-.05-.19m.42-.58h.08a.4.4 0 00.15 0 2.43 2.43 0 00-.2.25v-.17a.41.41 0 000-.16m.48-.53H59.04l-.23.2a.34.34 0 000-.1.5.5 0 000-.12m.53-.47h.25l-.28.21a.35.35 0 000-.17.15.15 0 000-.07m.52-.14a.44.44 0 00.08-.25.4.4 0 00.23.08 3.3 3.3 0 00-.32.18m.61-.3a.39.39 0 00.11-.21.37.37 0 00.19.11l-.3.1m.69-.19a.42.42 0 00.13-.21l.13.18h-.26m2 0a2.08 2.08 0 00.15-.2.45.45 0 00.14.24h-.29m.67.13a.45.45 0 00.21-.11.4.4 0 00.12.21l-.31-.1m1.47.8a3.92 3.92 0 00-.32-.25h.11a.47.47 0 00.17 0v.07a.46.46 0 00.05.2m.49.45l-.26-.25h.26a.36.36 0 000 .11.51.51 0 000 .13m.46.54a3.11 3.11 0 00-.24-.29.47.47 0 00.17 0h.08a.41.41 0 000 .16.28.28 0 000 .09m.4.58a2.82 2.82 0 00-.21-.31.55.55 0 00.22.06.45.45 0 000 .2v.06m.16.27a.42.42 0 00.25.09.36.36 0 00-.08.23c0-.11-.11-.21-.17-.32m.34.66a.4.4 0 00.22.09.43.43 0 00-.09.22l-.13-.31m.28.72v-.07l.12.07zm.29-1.05a.32.32 0 11-.32-.32.31.31 0 01.32.32m-.65-1a.32.32 0 110 .63.31.31 0 01-.32-.31.32.32 0 01.13-.26.28.28 0 01.16 0m-.41-.61a.32.32 0 01.32.32.31.31 0 01-.13.25.29.29 0 01-.16 0 .32.32 0 110-.63m-.47-.57a.32.32 0 11-.31.31.3.3 0 01.08-.21.3.3 0 01.21-.08m-.52-.53a.32.32 0 01.34.34.29.29 0 01-.09.22.34.34 0 01-.22.09.31.31 0 01-.31-.32.32.32 0 01.31-.32m-.58-.45a.32.32 0 11-.32.32.31.31 0 01.32-.32m-.75.38a.48.48 0 00.27 0 .39.39 0 00.09.26L64.36 4m0-.74a.32.32 0 01.32.32.33.33 0 01-.32.32.34.34 0 01-.32-.32.33.33 0 01.32-.32m-.71-.21a.32.32 0 01.32.32.32.32 0 11-.63 0 .32.32 0 01.31-.32M61.9 1.44l-.76.23v-.8l.76.25a.45.45 0 000 .16.41.41 0 000 .16M62 1l-.29-.87h1.1l-.29.87A.4.4 0 0062 1m.24.79a1.08 1.08 0 11-1.08 1.08 1.08 1.08 0 011.08-1.08m-1.4 1.32a.32.32 0 110 .63.32.32 0 110-.63m-.71.21a.32.32 0 11-.31.31.31.31 0 01.31-.31m-.65.35a.32.32 0 010 .63.32.32 0 110-.63m-.59.45a.32.32 0 110 .63.35.35 0 01-.22-.08.36.36 0 01-.09-.22.32.32 0 01.32-.32m-.52.52a.31.31 0 01.22.09.34.34 0 01.09.22.33.33 0 01-.32.32.32.32 0 01-.32-.32.32.32 0 01.32-.32m-.47.57a.32.32 0 01.32.32.32.32 0 01-.32.32.3.3 0 01-.16 0 .32.32 0 01.18-.58m-.4.62a.32.32 0 01.16 0 .32.32 0 01-.18.57.32.32 0 110-.63m-.34.66a.32.32 0 11-.32.31.32.32 0 01.32-.31m-.61 1a.32.32 0 11.63 0 .32.32 0 11-.63 0m.51.49s-.27.51 0 .61l-.18.76a2 2 0 002.7-.62c.1-.25-.09-.37-.28-.17-.17-.17.08-.38.2-.3 0-.58-.54-1-.25-1.47.49.29.2 1 .48 1.41.09-.15.39-.08.31.14-.25-.06-.37.1-.17.28a2.25 2.25 0 002.41-.44 2.31 2.31 0 002.39.46c.21-.24.09-.39-.18-.38 0-.2.24-.23.33-.1.29-.33 0-1.13.47-1.38.31.45-.33 1-.22 1.42.14-.07.38.12.22.27-.23-.16-.39-.06-.33.25.27.91 1.78 1.13 2.72.63l-.19-.76c.12-.12.08-.29 0-.61l.65.06-.52 1.66c-1.19.3-2.61 0-2.83-1a2 2 0 01-2.52-.39 2 2 0 01-2.51.39c-.31 1-1.62 1.38-2.86 1.06L56.44 8zm4.12 2.24a.09.09 0 00.09.09.09.09 0 00.08-.09.09.09 0 00-.08-.08.09.09 0 00-.09.08m0-.77a.08.08 0 00.08-.08.08.08 0 10-.16 0 .08.08 0 00.08.08m-1.1.93h.18a.57.57 0 00.45-.49.29.29 0 000-.09h-.06.06a.46.46 0 00-.48-.31.47.47 0 00-.17 0 .54.54 0 00-.45.48.28.28 0 000 .09.47.47 0 00.48.32m0-.76a.34.34 0 01.14 0 .35.35 0 01.36.22v.05c0 .14-.13.3-.35.36h-.14a.34.34 0 01-.35-.22.13.13 0 010-.06.42.42 0 01.35-.35"/>
</svg>
